<svg width="77" height="76" viewBox="0 0 77 76" fill="none" xmlns="http://www.w3.org/2000/svg">
<path d="M51.1572 50.8363C50.8967 50.8393 50.6395 50.7776 50.4088 50.6567C50.178 50.5358 49.9808 50.3595 49.835 50.1437C49.7187 49.9688 49.6386 49.7724 49.5993 49.5661C49.5601 49.3598 49.5626 49.1477 49.6066 48.9423C49.6506 48.737 49.7353 48.5425 49.8556 48.3703C49.9759 48.1982 50.1295 48.0519 50.3072 47.94C54.3569 45.3353 57.4542 41.4891 59.1356 36.9772C60.817 32.4653 60.9921 27.5302 59.6346 22.9104C58.2772 18.2907 55.4602 14.2347 51.6053 11.3495C47.7504 8.46436 43.0648 6.9051 38.2498 6.9051C33.4347 6.9051 28.7492 8.46436 24.8942 11.3495C21.0393 14.2347 18.2224 18.2907 16.8649 22.9104C15.5075 27.5302 15.6826 32.4653 17.364 36.9772C19.0454 41.4891 22.1427 45.3353 26.1924 47.94C26.378 48.0459 26.5402 48.1885 26.6689 48.3591C26.7976 48.5297 26.8903 48.7247 26.9412 48.9323C26.9921 49.1399 27.0002 49.3556 26.965 49.5664C26.9298 49.7772 26.8521 49.9787 26.7365 50.1585C26.6209 50.3382 26.47 50.4926 26.2928 50.6121C26.1156 50.7317 25.916 50.8139 25.706 50.8537C25.496 50.8936 25.2801 50.8903 25.0715 50.844C24.8628 50.7977 24.6658 50.7094 24.4924 50.5844C19.87 47.6123 16.3345 43.2231 14.415 38.0738C12.4954 32.9245 12.2951 27.292 13.844 22.0194C15.3929 16.7467 18.6076 12.1175 23.0072 8.82444C27.4067 5.5314 32.7543 3.75171 38.2498 3.75171C43.7452 3.75171 49.0929 5.5314 53.4924 8.82444C57.8919 12.1175 61.1067 16.7467 62.6556 22.0194C64.2045 27.292 64.0041 32.9245 62.0846 38.0738C60.1651 43.2231 56.6295 47.6123 52.0072 50.5844C51.7563 50.7533 51.4596 50.8412 51.1572 50.8363Z" fill="#FF4343"/>
<path d="M51.1572 63.2716H25.3424C24.9274 63.2635 24.5317 63.0951 24.2383 62.8016C23.9448 62.5081 23.7764 62.1124 23.7683 61.6975V49.2623C23.7764 48.8474 23.9448 48.4517 24.2383 48.1582C24.5317 47.8647 24.9274 47.6963 25.3424 47.6882C25.7599 47.6882 26.1602 47.8541 26.4554 48.1493C26.7506 48.4445 26.9165 48.8448 26.9165 49.2623V60.1234H49.5831V49.2623C49.5831 48.8448 49.749 48.4445 50.0442 48.1493C50.3394 47.8541 50.7397 47.6882 51.1572 47.6882C51.5721 47.6963 51.9678 47.8647 52.2613 48.1582C52.5548 48.4517 52.7232 48.8474 52.7313 49.2623V61.6975C52.7232 62.1124 52.5548 62.5081 52.2613 62.8016C51.9678 63.0951 51.5721 63.2635 51.1572 63.2716Z" fill="#FF4343"/>
<path d="M30.0018 70.953C29.5843 70.953 29.184 70.7872 28.8888 70.492C28.5936 70.1968 28.4277 69.7964 28.4277 69.379V63.8382C28.4358 63.4233 28.6042 63.0276 28.8977 62.7341C29.1912 62.4406 29.5869 62.2722 30.0018 62.2642C30.4193 62.2642 30.8196 62.43 31.1148 62.7252C31.41 63.0204 31.5759 63.4208 31.5759 63.8382V69.379C31.5759 69.7964 31.41 70.1968 31.1148 70.492C30.8196 70.7872 30.4193 70.953 30.0018 70.953Z" fill="#FF4343"/>
<path d="M46.4979 70.953C46.0804 70.953 45.6801 70.7872 45.3849 70.492C45.0897 70.1968 44.9238 69.7964 44.9238 69.379V63.8382C44.9238 63.4208 45.0897 63.0204 45.3849 62.7252C45.6801 62.43 46.0804 62.2642 46.4979 62.2642C46.9129 62.2722 47.3086 62.4406 47.602 62.7341C47.8955 63.0276 48.0639 63.4233 48.072 63.8382V69.379C48.072 69.7964 47.9061 70.1968 47.6109 70.492C47.3157 70.7872 46.9154 70.953 46.4979 70.953Z" fill="#FF4343"/>
<path d="M38.2499 63.2713C37.8324 63.2713 37.432 63.1055 37.1368 62.8103C36.8416 62.5151 36.6758 62.1147 36.6758 61.6972V36.5121C36.6758 36.0946 36.8416 35.6942 37.1368 35.399C37.432 35.1038 37.8324 34.938 38.2499 34.938C38.6673 34.938 39.0677 35.1038 39.3629 35.399C39.6581 35.6942 39.8239 36.0946 39.8239 36.5121V61.6972C39.8239 62.1147 39.6581 62.5151 39.3629 62.8103C39.0677 63.1055 38.6673 63.2713 38.2499 63.2713Z" fill="#FF4343"/>
</svg>
