<svg width="76" height="76" viewBox="0 0 76 76" fill="none" xmlns="http://www.w3.org/2000/svg">
<path d="M57.8798 54.2519H17.2887C14.1578 54.2519 11.1552 53.0081 8.94139 50.7943C6.72755 48.5805 5.48383 45.5778 5.48383 42.447V20.3523C5.46716 18.79 5.75996 17.2398 6.34535 15.7912C6.93075 14.3426 7.79714 13.0243 8.89458 11.9122C9.99201 10.8001 11.2988 9.91625 12.7395 9.31167C14.1802 8.70709 15.7263 8.39373 17.2887 8.38965H57.8798C61.008 8.39798 64.0058 9.64438 66.2179 11.8564C68.4299 14.0685 69.6763 17.0662 69.6846 20.1945V42.447C69.6846 43.9972 69.3793 45.5323 68.786 46.9645C68.1928 48.3968 67.3232 49.6981 66.2271 50.7943C65.1309 51.8905 63.8295 52.76 62.3973 53.3533C60.9651 53.9465 59.43 54.2519 57.8798 54.2519ZM17.2887 11.546C14.995 11.546 12.7952 12.4572 11.1733 14.0791C9.55139 15.701 8.64021 17.9008 8.64021 20.1945V42.447C8.64021 44.7407 9.55139 46.9405 11.1733 48.5624C12.7952 50.1843 14.995 51.0955 17.2887 51.0955H57.8798C60.1735 51.0955 62.3733 50.1843 63.9952 48.5624C65.6171 46.9405 66.5282 44.7407 66.5282 42.447V20.3523C66.5492 19.2034 66.341 18.0618 65.9158 16.9942C65.4905 15.9266 64.8568 14.9545 64.0516 14.1347C63.2465 13.3148 62.286 12.6636 61.2262 12.2191C60.1665 11.7747 59.0289 11.5458 57.8798 11.546H17.2887Z" fill="#FF4343"/>
<path d="M68.1057 42.2577H7.06134C6.64531 42.2496 6.24857 42.0808 5.95434 41.7865C5.6601 41.4923 5.49123 41.0955 5.48315 40.6795C5.48315 40.2609 5.64943 39.8595 5.9454 39.5636C6.24136 39.2676 6.64278 39.1013 7.06134 39.1013H68.1057C68.5243 39.1013 68.9257 39.2676 69.2217 39.5636C69.5177 39.8595 69.6839 40.2609 69.6839 40.6795C69.6839 41.0981 69.5177 41.4995 69.2217 41.7955C68.9257 42.0914 68.5243 42.2577 68.1057 42.2577Z" fill="#FF4343"/>
<path d="M37.5418 66.467C37.1233 66.467 36.7218 66.3008 36.4259 66.0048C36.1299 65.7088 35.9636 65.3074 35.9636 64.8888V52.6736C35.9636 52.2551 36.1299 51.8537 36.4259 51.5577C36.7218 51.2617 37.1233 51.0955 37.5418 51.0955C37.9604 51.0955 38.3618 51.2617 38.6578 51.5577C38.9537 51.8537 39.12 52.2551 39.12 52.6736V64.8888C39.12 65.3074 38.9537 65.7088 38.6578 66.0048C38.3618 66.3008 37.9604 66.467 37.5418 66.467Z" fill="#FF4343"/>
<path d="M55.7779 66.4672H19.1639C18.7453 66.4672 18.3439 66.3009 18.0479 66.0049C17.752 65.709 17.5857 65.3075 17.5857 64.889C17.5857 64.4704 17.752 64.069 18.0479 63.773C18.3439 63.4771 18.7453 63.3108 19.1639 63.3108H55.7779C56.1965 63.3108 56.5979 63.4771 56.8939 63.773C57.1898 64.069 57.3561 64.4704 57.3561 64.889C57.3561 65.3075 57.1898 65.709 56.8939 66.0049C56.5979 66.3009 56.1965 66.4672 55.7779 66.4672Z" fill="#FF4343"/>
</svg>
