<svg width="77" height="76" viewBox="0 0 77 76" fill="none" xmlns="http://www.w3.org/2000/svg">
<path d="M23.2014 66.0418C22.0675 66.0137 20.9692 65.6403 20.0533 64.9714C19.087 64.2769 18.3717 63.2882 18.0142 62.1532C17.6566 61.0182 17.6762 59.798 18.0699 58.6751L22.0366 46.4603C22.1917 45.9784 22.1899 45.4597 22.0315 44.9788C21.8731 44.498 21.5662 44.0798 21.1551 43.7844L10.7662 36.2288C9.83165 35.5451 9.1348 34.5857 8.77356 33.4855C8.41233 32.3853 8.40488 31.1996 8.75225 30.0949C9.09962 28.9903 9.78437 28.0222 10.7103 27.3268C11.6362 26.6314 12.7567 26.2435 13.9144 26.2177H26.7588C27.2418 26.2288 27.7169 26.0933 28.1215 25.8292C28.5261 25.5651 28.8412 25.1847 29.0255 24.7381L32.9921 12.4918C33.3278 11.3622 34.0227 10.3729 34.9715 9.67407C35.9204 8.97524 37.0712 8.60501 38.2496 8.61955C39.4187 8.60606 40.5611 8.96916 41.5079 9.65517C42.4547 10.3412 43.1556 11.3137 43.507 12.4288L47.4736 24.7381C47.6362 25.2116 47.9413 25.6232 48.3472 25.9163C48.753 26.2094 49.2397 26.3697 49.7403 26.3751H62.6162C63.7739 26.4009 64.8944 26.7888 65.8203 27.4842C66.7462 28.1796 67.431 29.1477 67.7783 30.2523C68.1257 31.357 68.1183 32.5427 67.757 33.6429C67.3958 34.7431 66.6989 35.7025 65.7644 36.3862L55.3755 43.9418C54.9643 44.2372 54.6575 44.6554 54.4991 45.1362C54.3407 45.6171 54.3389 46.1358 54.494 46.6177L58.4922 58.864C58.8774 59.9907 58.8895 61.2115 58.5266 62.3455C58.1637 63.4796 57.4451 64.4666 56.4773 65.1603C55.5384 65.8677 54.3946 66.2503 53.219 66.2503C52.0434 66.2503 50.8996 65.8677 49.9607 65.1603L39.5718 57.6047C39.1622 57.3147 38.6727 57.1589 38.1709 57.1589C37.669 57.1589 37.1795 57.3147 36.7699 57.6047L26.3496 65.1603C25.4161 65.7714 24.3165 66.0793 23.2014 66.0418ZM13.8829 29.4603C13.3776 29.4459 12.8817 29.5985 12.472 29.8944C12.0622 30.1904 11.7614 30.6132 11.6162 31.0973C11.4528 31.5756 11.4473 32.0937 11.6003 32.5754C11.7533 33.057 12.0568 33.4769 12.4662 33.7733L22.8866 41.3288C23.8505 42.0258 24.566 43.013 24.9286 44.1459C25.2911 45.2788 25.2816 46.498 24.9014 47.6251L20.9347 59.7455C20.7662 60.2233 20.7579 60.743 20.9113 61.2259C21.0647 61.7087 21.3713 62.1285 21.7847 62.4214C22.1864 62.7303 22.6789 62.8978 23.1857 62.8978C23.6924 62.8978 24.1849 62.7303 24.5866 62.4214L35.1014 54.8658C36.0415 54.1754 37.1775 53.803 38.344 53.803C39.5105 53.803 40.6465 54.1754 41.5866 54.8658L51.9125 62.5158C52.3142 62.8247 52.8067 62.9922 53.3134 62.9922C53.8202 62.9922 54.3127 62.8247 54.7144 62.5158C55.1278 62.2229 55.4344 61.8032 55.5878 61.3203C55.7412 60.8374 55.733 60.3177 55.5644 59.8399L51.5977 47.6251C51.2175 46.498 51.208 45.2788 51.5705 44.1459C51.9331 43.013 52.6486 42.0258 53.6125 41.3288L64.0014 33.7733C64.4025 33.4754 64.7002 33.0594 64.8529 32.5838C65.0056 32.1081 65.0055 31.5965 64.8528 31.1209C64.7 30.6453 64.4022 30.2294 64.0011 29.9316C63.6 29.6337 63.1157 29.4689 62.6162 29.4603H49.7403C48.5855 29.4459 47.464 29.071 46.5326 28.3881C45.6013 27.7051 44.9067 26.7481 44.5459 25.651L40.5162 13.4047C40.371 12.9206 40.0703 12.4978 39.6605 12.2019C39.2507 11.9059 38.7548 11.7533 38.2496 11.7677C37.7443 11.7533 37.2484 11.9059 36.8386 12.2019C36.4289 12.4978 36.1281 12.9206 35.9829 13.4047L31.9533 25.651C31.5924 26.7481 30.8978 27.7051 29.9665 28.3881C29.0351 29.071 27.9136 29.4459 26.7588 29.4603H13.8829Z" fill="#FF4343"/>
</svg>
