<svg width="76" height="76" viewBox="0 0 76 76" fill="none" xmlns="http://www.w3.org/2000/svg">
<path d="M37.5295 67.4523C29.5723 67.4523 21.941 64.2913 16.3144 58.6648C10.6878 53.0382 7.52686 45.4069 7.52686 37.4497C7.52686 29.4925 10.6878 21.8612 16.3144 16.2346C21.941 10.608 29.5723 7.44702 37.5295 7.44702C37.9483 7.44702 38.35 7.61339 38.6461 7.90953C38.9422 8.20566 39.1086 8.60731 39.1086 9.02611C39.1086 9.44491 38.9422 9.84655 38.6461 10.1427C38.35 10.4388 37.9483 10.6052 37.5295 10.6052C33.1007 10.5789 28.7341 11.6489 24.8191 13.7196C20.9041 15.7904 17.5623 18.7976 15.0915 22.4733C12.6207 26.1489 11.0977 30.3788 10.6583 34.7859C10.2189 39.1929 10.8767 43.6402 12.5731 47.7314C14.2695 51.8226 16.9518 55.4304 20.3809 58.2334C23.8099 61.0364 27.8792 62.9474 32.2261 63.7962C36.5729 64.6449 41.0622 64.4049 45.2938 63.0977C49.5254 61.7904 53.3678 59.4565 56.4786 56.304C56.619 56.1377 56.7922 56.0023 56.9874 55.9062C57.1826 55.8101 57.3956 55.7554 57.613 55.7455C57.8303 55.7356 58.0474 55.7707 58.2506 55.8487C58.4537 55.9266 58.6386 56.0457 58.7935 56.1985C58.9484 56.3513 59.0701 56.5344 59.151 56.7364C59.2318 56.9384 59.27 57.155 59.2632 57.3725C59.2564 57.5899 59.2047 57.8037 59.1113 58.0002C59.018 58.1968 58.8851 58.3719 58.7209 58.5147C55.9596 61.3377 52.6634 63.582 49.0248 65.1166C45.3863 66.6512 41.4784 67.4452 37.5295 67.4523Z" fill="#FF4343"/>
<path d="M36.5821 47.5558C36.3773 47.5624 36.1734 47.5265 35.9832 47.4504C35.7929 47.3743 35.6205 47.2597 35.4767 47.1137L22.844 34.481C22.696 34.3342 22.5786 34.1595 22.4984 33.9671C22.4182 33.7747 22.377 33.5683 22.377 33.3598C22.377 33.1514 22.4182 32.945 22.4984 32.7526C22.5786 32.5601 22.696 32.3855 22.844 32.2387C23.1445 31.9473 23.5467 31.7844 23.9652 31.7844C24.3837 31.7844 24.7858 31.9473 25.0863 32.2387L36.5821 43.766L62.3212 18.0269C62.6186 17.7295 63.0219 17.5625 63.4424 17.5625C63.8629 17.5625 64.2662 17.7295 64.5635 18.0269C64.8609 18.3242 65.0279 18.7275 65.0279 19.148C65.0279 19.5686 64.8609 19.9719 64.5635 20.2692L37.719 47.1137C37.5683 47.2591 37.3902 47.3731 37.195 47.449C36.9998 47.5249 36.7915 47.5612 36.5821 47.5558Z" fill="#FF4343"/>
</svg>
