<svg width="77" height="75" viewBox="0 0 77 75" fill="none" xmlns="http://www.w3.org/2000/svg">
<path d="M48.0461 65.5413H20.065C17.4331 65.5331 14.9119 64.4945 13.0538 62.6532C11.1957 60.8118 10.1523 58.3179 10.1523 55.7179V28.1691C10.1606 25.5745 11.2076 23.0885 13.0648 21.2539C14.922 19.4192 17.4385 18.3849 20.065 18.3767H28.4405C28.8565 18.3767 29.2554 18.54 29.5496 18.8305C29.8437 19.1211 30.0089 19.5152 30.0089 19.9261C30.0089 20.3371 29.8437 20.7312 29.5496 21.0217C29.2554 21.3123 28.8565 21.4756 28.4405 21.4756H20.065C18.2705 21.4837 16.5518 22.1915 15.2829 23.4451C14.014 24.6986 13.2975 26.3964 13.2892 28.1691V55.7179C13.2892 57.496 14.0021 59.2018 15.2719 60.462C16.5417 61.7222 18.2651 62.4343 20.065 62.4425H48.0461C48.9401 62.4425 49.8252 62.2685 50.6511 61.9306C51.477 61.5927 52.2274 61.0973 52.8595 60.4729C53.4916 59.8485 53.993 59.1072 54.3351 58.2913C54.6772 57.4755 54.8532 56.601 54.8532 55.7179V50.202C54.8532 49.7911 55.0185 49.3969 55.3126 49.1064C55.6068 48.8158 56.0057 48.6526 56.4217 48.6526C56.8377 48.6526 57.2366 48.8158 57.5307 49.1064C57.8249 49.3969 57.9901 49.7911 57.9901 50.202V55.7179C57.9901 58.3233 56.9425 60.8219 55.0776 62.6641C53.2127 64.5064 50.6835 65.5413 48.0461 65.5413Z" fill="#FF4343"/>
<path d="M56.2961 29.2847C55.8907 29.285 55.501 29.1303 55.2086 28.853C54.9162 28.5757 54.7438 28.1973 54.7276 27.7972C54.6651 26.649 54.2973 25.5374 53.6611 24.5744C53.149 23.7745 52.4632 23.097 51.6534 22.5912C50.7116 21.9901 49.6341 21.6282 48.5165 21.5375C48.3105 21.5296 48.1081 21.4815 47.9209 21.3962C47.7337 21.3109 47.5653 21.1899 47.4255 21.0402C47.2856 20.8906 47.177 20.7151 47.1059 20.524C47.0347 20.3328 47.0024 20.1297 47.0108 19.9261C47.002 19.5337 47.1473 19.1531 47.4163 18.8643C47.6854 18.5754 48.0572 18.4006 48.4538 18.3767C50.1956 18.4534 51.885 18.9883 53.3474 19.9261C54.5384 20.6671 55.546 21.6625 56.2961 22.8391C57.2454 24.2837 57.7869 25.9526 57.8645 27.6733C57.8729 27.8768 57.8406 28.0799 57.7695 28.2711C57.6983 28.4623 57.5897 28.6377 57.4499 28.7874C57.31 28.9371 57.1417 29.058 56.9545 29.1433C56.7672 29.2287 56.5648 29.2767 56.3588 29.2847H56.2961Z" fill="#FF4343"/>
<path d="M41.7722 43.5083H34.024C33.6081 43.5083 33.2091 43.345 32.915 43.0545C32.6208 42.7639 32.4556 42.3698 32.4556 41.9589V34.1497C32.4531 33.7454 32.6107 33.3562 32.8948 33.0651L48.5793 17.5708C48.8725 17.2869 49.2667 17.1279 49.6772 17.1279C50.0878 17.1279 50.4819 17.2869 50.7751 17.5708L53.5042 20.2669C53.7916 20.5565 53.9526 20.9459 53.9526 21.3515C53.9526 21.757 53.7916 22.1464 53.5042 22.4361C53.3584 22.5813 53.1849 22.6965 52.9938 22.7752C52.8027 22.8539 52.5977 22.8944 52.3906 22.8944C52.1836 22.8944 51.9786 22.8539 51.7874 22.7752C51.5963 22.6965 51.4228 22.5813 51.277 22.4361L49.6772 20.8866L35.4984 34.8005V40.4094H41.1762L55.3864 26.3406L53.7866 24.7602C53.4992 24.4706 53.3382 24.0812 53.3382 23.6756C53.3382 23.27 53.4992 22.8806 53.7866 22.591C53.9324 22.4458 54.1058 22.3305 54.297 22.2518C54.4881 22.1732 54.6931 22.1327 54.9002 22.1327C55.1072 22.1327 55.3122 22.1732 55.5033 22.2518C55.6945 22.3305 55.8679 22.4458 56.0138 22.591L58.7115 25.256C58.8585 25.4 58.9752 25.5714 59.0548 25.7602C59.1344 25.949 59.1754 26.1516 59.1754 26.3561C59.1754 26.5606 59.1344 26.7632 59.0548 26.952C58.9752 27.1408 58.8585 27.3122 58.7115 27.4562L43.027 42.9505C42.8702 43.1265 42.6772 43.2674 42.4607 43.3636C42.2443 43.4598 42.0095 43.5092 41.7722 43.5083Z" fill="#FF4343"/>
<path d="M57.7077 27.8903C57.2889 27.8943 56.8845 27.739 56.5785 27.4565L53.8807 24.7605C53.5933 24.4708 53.4324 24.0814 53.4324 23.6759C53.4324 23.2703 53.5933 22.8809 53.8807 22.5913C54.0265 22.446 54.2 22.3308 54.3911 22.2521C54.5823 22.1734 54.7873 22.133 54.9943 22.133C55.2014 22.133 55.4064 22.1734 55.5975 22.2521C55.7886 22.3308 55.9621 22.446 56.1079 22.5913L57.7077 24.1717L63.3542 18.5628L57.7077 12.9848L52.0299 18.5628L53.6298 20.1432C53.9172 20.4328 54.0781 20.8222 54.0781 21.2278C54.0781 21.6333 53.9172 22.0227 53.6298 22.3124C53.484 22.4576 53.3105 22.5729 53.1194 22.6515C52.9282 22.7302 52.7232 22.7707 52.5162 22.7707C52.3091 22.7707 52.1041 22.7302 51.913 22.6515C51.7218 22.5729 51.5484 22.4576 51.4026 22.3124L48.7048 19.6474C48.5541 19.509 48.4344 19.341 48.3534 19.1542C48.2724 18.9674 48.2318 18.766 48.2343 18.5628C48.2312 18.3549 48.2714 18.1486 48.3524 17.9567C48.4333 17.7648 48.5533 17.5914 48.7048 17.4472L56.5785 9.70002C56.7243 9.55479 56.8977 9.43952 57.0889 9.36086C57.28 9.2822 57.485 9.2417 57.6921 9.2417C57.8991 9.2417 58.1041 9.2822 58.2952 9.36086C58.4864 9.43952 58.6599 9.55479 58.8057 9.70002L66.6793 17.4472C66.9687 17.742 67.1305 18.1366 67.1305 18.5473C67.1305 18.9579 66.9687 19.3525 66.6793 19.6474L58.8057 27.4565C58.511 27.7371 58.117 27.8927 57.7077 27.8903Z" fill="#FF4343"/>
</svg>
