<svg width="77" height="76" viewBox="0 0 77 76" fill="none" xmlns="http://www.w3.org/2000/svg">
<path d="M51.623 47.7511H38.4322C38.0148 47.7511 37.6144 47.5852 37.3192 47.29C37.024 46.9948 36.8582 46.5945 36.8582 46.177C36.8582 45.7595 37.024 45.3591 37.3192 45.0639C37.6144 44.7687 38.0148 44.6029 38.4322 44.6029H51.623C52.0404 44.6029 52.4408 44.7687 52.736 45.0639C53.0312 45.3591 53.197 45.7595 53.197 46.177C53.197 46.5945 53.0312 46.9948 52.736 47.29C52.4408 47.5852 52.0404 47.7511 51.623 47.7511Z" fill="#FF4343"/>
<path d="M60.5006 46.7751C60.3143 46.8193 60.1202 46.8193 59.9339 46.7751C59.7399 46.7052 59.5619 46.597 59.4104 46.4571C59.2589 46.3172 59.1369 46.1484 59.0518 45.9605C58.9667 45.7727 58.9201 45.5697 58.9148 45.3635C58.9095 45.1574 58.9456 44.9522 59.0209 44.7603L66.5135 24.738C66.6618 24.3515 66.9564 24.0389 67.3335 23.868C67.7107 23.6971 68.1399 23.6817 68.5284 23.8251C68.9179 23.9803 69.233 24.2791 69.4088 24.6598C69.5845 25.0406 69.6074 25.4742 69.4728 25.8714L61.9802 45.7991C61.8533 46.0867 61.6463 46.3316 61.3839 46.5047C61.1215 46.6777 60.8149 46.7716 60.5006 46.7751Z" fill="#FF4343"/>
<path d="M28.3579 47.3733C28.0295 47.3757 27.7089 47.2731 27.4427 47.0806C27.1766 46.8881 26.9789 46.6156 26.8783 46.3029L16.9931 16.2696H7.54868C7.13121 16.2696 6.73084 16.1038 6.43564 15.8086C6.14045 15.5134 5.97461 15.113 5.97461 14.6955C5.98267 14.2806 6.1511 13.8849 6.44456 13.5914C6.73803 13.2979 7.13374 13.1295 7.54868 13.1215H18.1265C18.4526 13.1284 18.7689 13.2346 19.0333 13.4258C19.2976 13.617 19.4974 13.8842 19.6061 14.1918L29.9635 45.2955C30.0325 45.4897 30.0619 45.6957 30.05 45.9014C30.038 46.1071 29.985 46.3083 29.8941 46.4931C29.8031 46.678 29.676 46.8428 29.5203 46.9777C29.3646 47.1127 29.1835 47.2151 28.9876 47.2789C28.7876 47.3577 28.5723 47.39 28.3579 47.3733Z" fill="#FF4343"/>
<path d="M33.2062 61.54C31.3382 61.54 29.5122 60.9861 27.9591 59.9483C26.406 58.9106 25.1955 57.4356 24.4806 55.7098C23.7658 53.9841 23.5788 52.0851 23.9432 50.2531C24.3076 48.421 25.2071 46.7382 26.5279 45.4173C27.8488 44.0965 29.5316 43.197 31.3637 42.8326C33.1957 42.4682 35.0947 42.6552 36.8204 43.37C38.5462 44.0849 40.0212 45.2954 41.0589 46.8485C42.0967 48.4017 42.6506 50.2276 42.6506 52.0956C42.6506 54.6004 41.6556 57.0026 39.8844 58.7738C38.1132 60.545 35.711 61.54 33.2062 61.54ZM33.2062 45.7993C31.9609 45.7993 30.7436 46.1685 29.7081 46.8604C28.6727 47.5522 27.8657 48.5356 27.3891 49.6861C26.9126 50.8366 26.7879 52.1026 27.0309 53.3239C27.2738 54.5453 27.8735 55.6672 28.754 56.5477C29.6346 57.4283 30.7565 58.028 31.9778 58.2709C33.1992 58.5138 34.4652 58.3892 35.6157 57.9126C36.7662 57.436 37.7495 56.629 38.4413 55.5936C39.1332 54.5582 39.5025 53.3409 39.5025 52.0956C39.5025 50.4257 38.8391 48.8242 37.6583 47.6434C36.4775 46.4626 34.8761 45.7993 33.2062 45.7993Z" fill="#FF4343"/>
<path d="M56.8487 61.54C54.9808 61.54 53.1548 60.9861 51.6017 59.9483C50.0486 58.9106 48.838 57.4356 48.1232 55.7098C47.4084 53.9841 47.2214 52.0851 47.5858 50.2531C47.9502 48.421 48.8497 46.7382 50.1705 45.4173C51.4913 44.0965 53.1742 43.197 55.0062 42.8326C56.8383 42.4682 58.7372 42.6552 60.463 43.37C62.1887 44.0849 63.6637 45.2954 64.7015 46.8485C65.7393 48.4017 66.2932 50.2276 66.2932 52.0956C66.2932 54.6004 65.2982 57.0026 63.527 58.7738C61.7558 60.545 59.3536 61.54 56.8487 61.54ZM56.8487 45.7993C55.6035 45.7993 54.3861 46.1685 53.3507 46.8604C52.3153 47.5522 51.5083 48.5356 51.0317 49.6861C50.5552 50.8366 50.4305 52.1026 50.6734 53.3239C50.9164 54.5453 51.516 55.6672 52.3966 56.5477C53.2771 57.4283 54.399 58.028 55.6204 58.2709C56.8418 58.5138 58.1077 58.3892 59.2582 57.9126C60.4087 57.436 61.3921 56.629 62.0839 55.5936C62.7758 54.5582 63.145 53.3409 63.145 52.0956C63.145 50.4257 62.4817 48.8242 61.3009 47.6434C60.1201 46.4626 58.5186 45.7993 56.8487 45.7993Z" fill="#FF4343"/>
</svg>
